<svg width="60" height="51" viewBox="0 0 60 51" fill="none" xmlns="http://www.w3.org/2000/svg">
<path d="M23.7261 50.4511C23.0221 50.4519 22.3248 50.3137 21.6744 50.0442C21.024 49.7748 20.4333 49.3795 19.9361 48.8811L1.57008 29.5161C0.564773 28.5108 0 27.1473 0 25.7256C0 24.3039 0.564773 22.9404 1.57008 21.9351C2.57538 20.9298 3.93886 20.365 5.36058 20.365C6.78229 20.365 8.14577 20.9298 9.15108 21.9351L23.7261 37.5101L50.6661 1.57008C51.6714 0.564773 53.0349 0 54.4566 0C55.8783 0 57.2418 0.564773 58.2471 1.57008C59.2524 2.57538 59.8172 3.93886 59.8172 5.36058C59.8172 6.78229 59.2524 8.14577 58.2471 9.15108L27.5161 48.8811C27.0189 49.3795 26.4281 49.7748 25.7777 50.0442C25.1273 50.3137 24.4301 50.4519 23.7261 50.4511Z" fill="#F2F2F2"/>
</svg>